<?xml version="1.0" encoding="UTF-8"?>
<svg id="Layer_1" data-name="Layer 1" xmlns="http://www.w3.org/2000/svg" viewBox="0 0 57.6 57.6">
  <defs>
    <style>
      .cls-1 {
        fill: #fff;
      }
    </style>
  </defs>
  <polygon class="cls-1" points="28.8 .02 30.52 17.94 37.69 1.43 33.79 19.01 45.71 5.52 36.57 21.03 52.08 11.89 38.59 23.81 56.17 19.91 39.66 27.08 57.58 28.8 39.66 30.52 56.17 37.69 38.59 33.79 52.08 45.71 36.57 36.57 45.71 52.08 33.79 38.59 37.69 56.17 30.52 39.66 28.8 57.58 27.08 39.66 19.91 56.17 23.81 38.59 11.89 52.08 21.03 36.57 5.52 45.71 19.01 33.79 1.43 37.69 17.94 30.52 .02 28.8 17.94 27.08 1.43 19.91 19.01 23.81 5.52 11.89 21.03 21.03 11.89 5.52 23.81 19.01 19.91 1.43 27.08 17.94 28.8 .02"/>
</svg>