<?xml version="1.0" encoding="UTF-8"?>
<svg id="Layer_1" data-name="Layer 1" xmlns="http://www.w3.org/2000/svg" viewBox="0 0 82.22 94.44">
  <defs>
    <style>
      .cls-1 {
        fill: #fff;
      }
    </style>
  </defs>
  <path class="cls-1" d="M42.61,1.13l8.31,29.11,29.36-7.36c1.52-.38,2.59,1.47,1.5,2.59l-21.06,21.75,21.06,21.75c1.09,1.13.02,2.97-1.5,2.59l-29.36-7.36-8.31,29.11c-.43,1.51-2.56,1.51-2.99,0l-8.31-29.11-29.36,7.36c-1.52.38-2.59-1.47-1.5-2.59l21.06-21.75L.45,25.47c-1.09-1.13-.02-2.97,1.5-2.59l29.36,7.36L39.61,1.13c.43-1.51,2.56-1.51,2.99,0Z"/>
</svg>